<svg width="900" height="206" viewBox="0 0 900 206" fill="none" xmlns="http://www.w3.org/2000/svg">
<g clip-path="url(#clip0)">
<path d="M210.38 102.66V102.69L210.45 107.69H200.28L200.36 102.69V102.67L200.44 97.6599H210.3L210.38 102.66Z" fill="#00D2C8"/>
<path d="M208.07 82.2501L208.06 82.2101L207.09 77.6201L198.02 79.4201L198.86 84.0301V84.0701L199.7 88.6901L209.05 86.8401L208.07 82.2501Z" fill="#00D2C8"/>
<path d="M201.82 62.6899L201.81 62.6499L200.07 58.6299L192.11 61.9399L193.72 66.0099L193.73 66.0499L195.34 70.1199L203.57 66.7099L201.82 62.6899Z" fill="#00D2C8"/>
<path d="M191.9 44.7999L191.87 44.7699L189.56 41.4199L182.91 45.8699L185.11 49.2899L185.13 49.3199L187.34 52.7399L194.21 48.1499L191.9 44.7999Z" fill="#00D2C8"/>
<path d="M178.72 29.2401L178.69 29.2101L175.99 26.6001L170.77 31.8201L173.38 34.5201L173.4 34.5501L176.01 37.2501L181.41 31.8501L178.72 29.2401Z" fill="#00D2C8"/>
<path d="M162.81 16.5699L162.78 16.5499L159.89 14.6799L156.12 20.2999L158.95 22.2699L158.98 22.2899L161.8 24.2499L165.7 18.4399L162.81 16.5699Z" fill="#00D2C8"/>
<path d="M144.79 7.26009L144.75 7.25009L141.84 6.09009L139.48 11.7801L142.35 13.0301L142.39 13.0401L145.26 14.2901L147.7 8.42009L144.79 7.26009Z" fill="#00D2C8"/>
<path d="M125.35 1.68993H125.31L122.54 1.17993L121.47 6.61993L124.22 7.20993L124.26 7.21993L127.01 7.80993L128.12 2.19993L125.35 1.68993Z" fill="#00D2C8"/>
<path d="M107.771 5.09L105.261 5.05H105.231L102.731 5V0.08L105.231 0.04H105.271L107.771 0V5.09Z" fill="#00D2C8"/>
<path d="M85.3005 2.29008L85.2605 2.30008L83.1205 2.76008L83.9505 6.99008L86.1105 6.60008L86.1505 6.59008L88.3105 6.20008L87.4405 1.83008L85.3005 2.29008Z" fill="#00D2C8"/>
<path d="M66.2104 8.3899L66.1804 8.4099L64.4504 9.1499L65.8704 12.5699L67.6104 11.8799L67.6504 11.8599L69.4004 11.1699L67.9304 7.6499L66.2104 8.3899Z" fill="#00D2C8"/>
<path d="M48.7498 18.09L48.7198 18.11L47.4298 19L49.1398 21.5599L50.4598 20.7099L50.4898 20.69L51.7998 19.84L50.0398 17.2L48.7498 18.09Z" fill="#00D2C8"/>
<path d="M33.5702 30.9601L33.5402 30.9801L32.6702 31.8801L34.4102 33.6201L35.3102 32.7501L35.3402 32.7301L36.2402 31.8601L34.4402 30.0601L33.5702 30.9601Z" fill="#00D2C8"/>
<path d="M21.1998 46.4799L21.1798 46.5099L20.6698 47.2999L22.1998 48.3299L22.7398 47.5599L22.7598 47.5299L23.2998 46.7599L21.7098 45.6899L21.1998 46.4799Z" fill="#00D2C8"/>
<path d="M12.1303 64.07L12.1103 64.1L11.8803 64.69L13.0203 65.16L13.2703 64.58L13.2803 64.55L13.5303 63.97L12.3603 63.49L12.1303 64.07Z" fill="#00D2C8"/>
<path d="M7.37988 82.84L7.30989 83.15L7.2999 83.19L7.23988 83.49L6.62988 83.37L6.6899 83.07V83.03L6.74989 82.72L7.37988 82.84Z" fill="#00D2C8"/>
<path d="M190.35 102.69V102.66L190.26 97.6599H180.43L180.33 102.67V102.69L180.23 107.69H190.44L190.35 102.69Z" fill="#00D2C8"/>
<path d="M187.52 82.4299L187.51 82.3899L186.32 77.9299L177.52 80.0999L178.53 84.6099L178.54 84.6399L179.55 89.1499L188.71 86.8999L187.52 82.4299Z" fill="#00D2C8"/>
<path d="M179.92 63.52L179.9 63.48L177.85 59.77L170.51 63.64L172.4 67.43L172.42 67.46L174.32 71.25L181.96 67.23L179.92 63.52Z" fill="#00D2C8"/>
<path d="M168.07 47.06L168.05 47.0299L165.44 44.2L159.79 49.2099L162.28 52.1399L162.31 52.1699L164.8 55.11L170.69 49.8899L168.07 47.06Z" fill="#00D2C8"/>
<path d="M152.74 33.95L152.7 33.93L149.82 32.01L145.95 37.6L148.76 39.63L148.79 39.65L151.59 41.69L155.62 35.87L152.74 33.95Z" fill="#00D2C8"/>
<path d="M134.79 24.9201L134.76 24.9001L131.86 23.8601L129.71 29.5101L132.56 30.6601L132.6 30.6801L135.45 31.8401L137.69 25.9601L134.79 24.9201Z" fill="#00D2C8"/>
<path d="M115.28 20.48H115.24L112.55 20.21L111.92 25.45L114.59 25.83L114.63 25.84L117.3 26.22L117.96 20.76L115.28 20.48Z" fill="#00D2C8"/>
<path d="M95.3697 20.85H95.3197L93.0397 21.17L93.5797 25.67L95.8797 25.44H95.9197L98.2197 25.21L97.6497 20.53L95.3697 20.85Z" fill="#00D2C8"/>
<path d="M76.2006 25.95L76.1706 25.96L74.3806 26.68L75.7206 30.21L77.5406 29.56L77.5706 29.55L79.3906 28.9L77.9906 25.23L76.2006 25.95Z" fill="#00D2C8"/>
<path d="M58.92 35.4601L58.89 35.4901L57.64 36.3901L59.36 38.8701L60.64 38.0201L60.67 38.0001L61.96 37.1501L60.17 34.5601L58.92 35.4601Z" fill="#00D2C8"/>
<path d="M44.48 48.7501L44.46 48.7801L43.71 49.6601L45.4 51.1601L46.19 50.3201L46.21 50.2901L47 49.4401L45.23 47.8701L44.48 48.7501Z" fill="#00D2C8"/>
<path d="M33.6604 65.0101L33.6504 65.0501L33.3004 65.7401L34.6404 66.4401L35.0104 65.7701L35.0304 65.7301L35.4004 65.0601L34.0104 64.3201L33.6604 65.0101Z" fill="#00D2C8"/>
<path d="M27.9307 83.1199L27.8307 83.4899L27.8207 83.5299L27.7207 83.8999L26.9907 83.7199L27.0807 83.3499L27.0907 83.3099L27.1707 82.9299L27.9307 83.1199Z" fill="#00D2C8"/>
<path d="M170.32 102.69V102.66L170.2 97.6599H160.44L160.31 102.67V102.69L160.17 107.69H170.44L170.32 102.69Z" fill="#00D2C8"/>
<path d="M165.88 80.63L165.87 80.59L164.24 76.45L156.1 79.42L157.51 83.65L157.52 83.68L158.93 87.91L167.51 84.78L165.88 80.63Z" fill="#00D2C8"/>
<path d="M154.24 61.5999L154.21 61.5699L151.63 58.6499L145.83 63.5299L148.25 66.5799L148.27 66.6099L150.69 69.6599L156.82 64.5199L154.24 61.5999Z" fill="#00D2C8"/>
<path d="M136.97 47.7899L136.93 47.7699L134 46.1699L130.75 51.7899L133.59 53.5499L133.62 53.5699L136.46 55.3299L139.9 49.3899L136.97 47.7899Z" fill="#00D2C8"/>
<path d="M116.19 40.7801L116.15 40.7701L113.4 40.3601L112.46 45.6901L115.19 46.2501L115.23 46.2601L117.95 46.8201L118.95 41.1901L116.19 40.7801Z" fill="#00D2C8"/>
<path d="M94.4607 41.3101L94.4107 41.3201L92.2307 41.7501L92.9807 46.0201L95.1807 45.7001L95.2207 45.6901L97.4307 45.3701L96.6407 40.8701L94.4607 41.3101Z" fill="#00D2C8"/>
<path d="M74.4 49.1901L74.36 49.2101L72.94 50.0901L74.57 52.9001L76.03 52.1001L76.07 52.0801L77.54 51.2901L75.82 48.3201L74.4 49.1901Z" fill="#00D2C8"/>
<path d="M58.4006 63.32L58.3806 63.3499L57.6806 64.23L59.3406 65.62L60.0806 64.79L60.1106 64.76L60.8506 63.9199L59.1006 62.45L58.4006 63.32Z" fill="#00D2C8"/>
<path d="M48.2598 81.8801L48.2498 81.9201L48.0698 82.4501L49.0898 82.8201L49.2898 82.3001L49.3098 82.2701L49.5098 81.7501L48.4398 81.3601L48.2598 81.8801Z" fill="#00D2C8"/>
<path d="M150.29 102.69V102.66L150.12 97.6599H140.49L140.28 102.67V102.69L140.06 107.69H150.46L150.29 102.69Z" fill="#00D2C8"/>
<path d="M143.53 80.58L143.5 80.54L141.28 77.01L134.36 81.03L136.29 84.73L136.31 84.76L138.24 88.47L145.75 84.11L143.53 80.58Z" fill="#00D2C8"/>
<path d="M126.931 65.12L126.891 65.1L123.941 63.53L120.741 69.07L123.551 70.87L123.581 70.9L126.401 72.7L129.891 66.68L126.931 65.12Z" fill="#00D2C8"/>
<path d="M105.23 60.13H105.18L102.68 60.22V65.03L105.19 65.13H105.23L107.73 65.23V60.03L105.23 60.13Z" fill="#00D2C8"/>
<path d="M84.3498 66.5699L84.3198 66.5899L82.9098 67.4799L84.5198 70.2499L85.9898 69.4699L86.0298 69.4499L87.5098 68.6799L85.7698 65.6699L84.3498 66.5699Z" fill="#00D2C8"/>
<path d="M69.81 82.26L69.79 82.29L69.4 83.03L70.79 83.83L71.24 83.13L71.26 83.09L71.71 82.39L70.2 81.52L69.81 82.26Z" fill="#00D2C8"/>
<path d="M0.0799255 102.69V102.71L0.149918 107.72L10.0099 107.71L10.0899 102.71V102.69L10.1699 97.6799H-7.62939e-05L0.0799255 102.69Z" fill="#00D2C8"/>
<path d="M2.38066 123.12L2.39067 123.16L3.37067 127.75L12.4307 125.96L11.6007 121.34L11.5907 121.3L10.7607 116.68L1.40067 118.53L2.38066 123.12Z" fill="#00D2C8"/>
<path d="M8.63058 142.68L8.65059 142.72L10.3906 146.74L18.3506 143.44L16.7406 139.36L16.7206 139.33L15.1106 135.25L6.89059 138.66L8.63058 142.68Z" fill="#00D2C8"/>
<path d="M18.5598 160.57L18.5798 160.61L20.8998 163.95L27.5498 159.5L25.3398 156.08L25.3198 156.05L23.1198 152.63L16.2498 157.23L18.5598 160.57Z" fill="#00D2C8"/>
<path d="M31.7404 176.13L31.7704 176.16L34.4704 178.78L39.6904 173.55L37.0804 170.85L37.0504 170.82L34.4404 168.12L29.0404 173.52L31.7404 176.13Z" fill="#00D2C8"/>
<path d="M47.6498 188.81L47.6798 188.83L50.5698 190.7L54.3398 185.07L51.5098 183.11L51.4798 183.09L48.6498 181.12L44.7598 186.94L47.6498 188.81Z" fill="#00D2C8"/>
<path d="M65.6697 198.11L65.7097 198.12L68.6197 199.28L70.9697 193.59L68.0997 192.34L68.0697 192.33L65.1997 191.08L62.7597 196.96L65.6697 198.11Z" fill="#00D2C8"/>
<path d="M86.2002 198.15L86.2302 198.16L88.9902 198.75L87.9102 204.19L85.1402 203.69L85.1002 203.68L82.3302 203.18L83.4402 197.56L86.2002 198.15Z" fill="#00D2C8"/>
<path d="M105.19 200.33H105.23L107.73 200.37V205.29L105.23 205.33H105.19L102.69 205.37V200.28L105.19 200.33Z" fill="#00D2C8"/>
<path d="M125.16 203.08L125.2 203.07L127.34 202.61L126.5 198.38L124.35 198.77L124.31 198.78L122.15 199.17L123.01 203.54L125.16 203.08Z" fill="#00D2C8"/>
<path d="M144.24 196.98L144.28 196.96L146 196.22L144.59 192.81L142.84 193.49L142.81 193.51L141.06 194.2L142.52 197.73L144.24 196.98Z" fill="#00D2C8"/>
<path d="M161.711 187.28L161.741 187.26L163.021 186.37L161.311 183.81L160.001 184.66L159.971 184.68L158.651 185.53L160.421 188.18L161.711 187.28Z" fill="#00D2C8"/>
<path d="M176.89 174.42L176.92 174.39L177.79 173.49L176.05 171.75L175.15 172.62L175.12 172.65L174.22 173.52L176.02 175.32L176.89 174.42Z" fill="#00D2C8"/>
<path d="M189.26 158.89L189.28 158.86L189.79 158.07L188.25 157.04L187.72 157.81L187.7 157.84L187.16 158.62L188.75 159.68L189.26 158.89Z" fill="#00D2C8"/>
<path d="M198.33 141.31L198.35 141.27L198.58 140.69L197.44 140.22L197.19 140.79L197.17 140.82L196.93 141.4L198.1 141.89L198.33 141.31Z" fill="#00D2C8"/>
<path d="M203.83 122L203.77 122.31L203.76 122.35L203.7 122.65L203.08 122.53L203.15 122.22V122.19L203.22 121.88L203.83 122Z" fill="#00D2C8"/>
<path d="M20.1097 102.69V102.71L20.1997 107.72L30.0197 107.71L30.1197 102.71V102.69L30.2197 97.6799H20.0197L20.1097 102.69Z" fill="#00D2C8"/>
<path d="M22.9404 122.94L22.9504 122.98L24.1404 127.45L32.9404 125.28L31.9204 120.77L31.9104 120.73L30.9004 116.22L21.7504 118.47L22.9404 122.94Z" fill="#00D2C8"/>
<path d="M30.5304 141.86L30.5504 141.89L32.6004 145.6L39.9404 141.73L38.0504 137.94L38.0304 137.91L36.1404 134.12L28.4904 138.15L30.5304 141.86Z" fill="#00D2C8"/>
<path d="M42.3801 158.31L42.4102 158.34L45.0202 161.18L50.6602 156.17L48.1702 153.23L48.1402 153.2L45.6501 150.27L39.7702 155.48L42.3801 158.31Z" fill="#00D2C8"/>
<path d="M57.72 171.42L57.75 171.44L60.64 173.36L64.5 167.78L61.7 165.74L61.67 165.72L58.86 163.69L54.83 169.5L57.72 171.42Z" fill="#00D2C8"/>
<path d="M75.66 180.46L75.7 180.47L78.6 181.51L80.75 175.87L77.89 174.71L77.86 174.7L75 173.54L72.76 179.41L75.66 180.46Z" fill="#00D2C8"/>
<path d="M95.1803 184.89H95.2203L97.9003 185.17L98.5303 179.92L95.8603 179.54H95.8303L93.1603 179.16L92.4903 184.62L95.1803 184.89Z" fill="#00D2C8"/>
<path d="M115.09 184.53L115.13 184.52L117.42 184.2L116.88 179.7L114.58 179.93L114.54 179.94L112.24 180.17L112.8 184.84L115.09 184.53Z" fill="#00D2C8"/>
<path d="M134.25 179.42L134.29 179.41L136.07 178.69L134.73 175.16L132.92 175.81L132.88 175.82L131.07 176.47L132.46 180.14L134.25 179.42Z" fill="#00D2C8"/>
<path d="M151.531 169.91L151.561 169.89L152.811 168.99L151.091 166.51L149.811 167.36L149.781 167.38L148.491 168.23L150.281 170.81L151.531 169.91Z" fill="#00D2C8"/>
<path d="M165.97 156.62L166 156.59L166.75 155.71L165.05 154.21L164.27 155.06L164.24 155.09L163.46 155.94L165.22 157.5L165.97 156.62Z" fill="#00D2C8"/>
<path d="M176.79 140.36L176.81 140.33L177.15 139.64L175.82 138.94L175.45 139.61L175.43 139.64L175.05 140.31L176.44 141.05L176.79 140.36Z" fill="#00D2C8"/>
<path d="M183.46 121.65L183.38 122.03L183.37 122.07L183.28 122.44L182.52 122.25L182.62 121.88L182.63 121.84L182.73 121.47L183.46 121.65Z" fill="#00D2C8"/>
<path d="M40.13 102.69L40.14 102.71L40.25 107.72L50.01 107.71L50.15 102.71V102.69L50.29 97.6799H40.0201L40.13 102.69Z" fill="#00D2C8"/>
<path d="M44.5706 124.74L44.5906 124.78L46.2206 128.92L54.3506 125.95L52.9506 121.73L52.9306 121.69L51.5306 117.47L42.9406 120.6L44.5706 124.74Z" fill="#00D2C8"/>
<path d="M56.2199 143.77L56.2499 143.81L58.8299 146.73L64.6299 141.85L62.2099 138.79L62.1799 138.77L59.7599 135.71L53.6399 140.86L56.2199 143.77Z" fill="#00D2C8"/>
<path d="M73.48 157.58L73.52 157.6L76.45 159.2L79.71 153.58L76.87 151.83L76.84 151.81L74 150.05L70.55 155.98L73.48 157.58Z" fill="#00D2C8"/>
<path d="M94.2602 164.6H94.3002L97.0502 165.02L97.9902 159.69L95.2702 159.12H95.2302L92.5002 158.56L91.5102 164.18L94.2602 164.6Z" fill="#00D2C8"/>
<path d="M116 164.07L116.04 164.06L118.22 163.62L117.47 159.35L115.27 159.68H115.23L113.03 160.01L113.82 164.51L116 164.07Z" fill="#00D2C8"/>
<path d="M136.06 156.18L136.09 156.16L137.51 155.29L135.89 152.48L134.42 153.27L134.38 153.29L132.92 154.09L134.63 157.06L136.06 156.18Z" fill="#00D2C8"/>
<path d="M152.051 142.05L152.081 142.02L152.771 141.15L151.111 139.76L150.381 140.59L150.351 140.62L149.611 141.45L151.361 142.92L152.051 142.05Z" fill="#00D2C8"/>
<path d="M162.19 123.49L162.21 123.45L162.38 122.92L161.37 122.55L161.16 123.07L161.15 123.11L160.94 123.63L162.01 124.02L162.19 123.49Z" fill="#00D2C8"/>
<path d="M60.1606 102.69V102.71L60.3306 107.72L69.9606 107.71L70.1806 102.71V102.69L70.3906 97.6799H59.9906L60.1606 102.69Z" fill="#00D2C8"/>
<path d="M66.9306 124.79L66.9506 124.83L69.1706 128.36L76.1006 124.35L74.1706 120.64L74.1506 120.61L72.2206 116.91L64.7006 121.26L66.9306 124.79Z" fill="#00D2C8"/>
<path d="M83.5197 140.25L83.5597 140.28L86.5097 141.84L89.7197 136.3L86.8997 134.5L86.8697 134.48L84.0497 132.68L80.5697 138.69L83.5197 140.25Z" fill="#00D2C8"/>
<path d="M105.23 145.25H105.27L107.78 145.16L107.77 140.34L105.27 140.24H105.23L102.72 140.14V145.34L105.23 145.25Z" fill="#00D2C8"/>
<path d="M126.1 138.81L126.14 138.79L127.55 137.89L125.94 135.13L124.46 135.9L124.42 135.92L122.94 136.7L124.69 139.7L126.1 138.81Z" fill="#00D2C8"/>
<path d="M140.64 123.12L140.66 123.08L141.05 122.34L139.66 121.54L139.22 122.25L139.2 122.28L138.75 122.99L140.25 123.86L140.64 123.12Z" fill="#00D2C8"/>
<path d="M145.29 102.71H145.28V102.69L145.29 102.71Z" fill="#00D2C8"/>
<path d="M652.17 88.7802C657.13 60.7102 662.08 32.7602 667.05 4.68019H668.36C675.03 4.68019 681.69 4.64019 688.36 4.69019C694.91 4.75019 701.39 5.42019 707.47 8.07019C715.45 11.5502 721.11 17.2902 724.05 25.5702C726.45 32.3202 726.69 39.2802 725.95 46.3202C725.27 52.7502 723.6 58.9002 720.64 64.6602C717.56 70.6802 713.2 75.5902 707.66 79.4502C700.48 84.4502 692.45 87.2102 683.83 88.2502C680.41 88.6602 676.94 88.7902 673.5 88.8302C666.84 88.9202 660.17 88.8602 653.5 88.8502C653.08 88.8702 652.67 88.8202 652.17 88.7802ZM657.92 84.2902C658.18 84.3902 658.24 84.4302 658.31 84.4302C665.57 84.3702 672.83 84.4702 680.09 84.2102C686.47 83.9802 692.6 82.4002 698.4 79.6302C705.36 76.3002 710.91 71.4102 714.88 64.7902C718.09 59.4302 719.98 53.6202 720.8 47.4302C721.7 40.6502 721.62 33.9302 719.45 27.3802C717.72 22.1502 714.67 17.8402 710.08 14.6902C704.54 10.8902 698.26 9.49019 691.7 9.24019C685.68 9.02019 679.64 9.11019 673.62 9.10019C670.74 9.09019 671.37 8.74019 670.88 11.4502C669.4 19.5802 667.97 27.7202 666.53 35.8602C665.23 43.1902 663.93 50.5202 662.62 57.8502C661.39 64.7602 660.15 71.6702 658.92 78.5902C658.58 80.4902 658.26 82.3802 657.92 84.2902Z" fill="white"/>
<path d="M886.77 76.9502C886.67 77.1402 886.6 77.3402 886.47 77.5002C883.79 80.8502 880.72 83.8302 877.19 86.2502C872.73 89.3102 867.79 90.7102 862.31 90.1302C859.24 89.8102 856.35 89.0202 853.75 87.3902C849.59 84.7802 847.08 80.8802 845.59 76.3102C843.89 71.1002 843.75 65.7502 844.26 60.3302C844.82 54.4302 846.38 48.8502 849.16 43.6302C853.07 36.2902 858.8 30.8802 866.74 28.1902C873.08 26.0402 879.47 26.0902 885.7 28.8202C888.61 30.0902 891.1 31.9802 893.35 34.2002C893.64 34.4802 893.74 34.9602 893.93 35.3402C894.1 35.2102 894.26 35.0902 894.43 34.9602C894.86 33.2702 895.32 31.5802 895.7 29.8802C896.12 28.0102 896.09 28.0102 897.94 28.0002C900.14 28.0002 900.18 28.0002 899.81 30.1502C898.8 35.9402 897.74 41.7102 896.72 47.5002C895.61 53.8002 894.53 60.1102 893.44 66.4202C892.72 70.5802 891.93 74.7302 891.3 78.9102C891.13 80.0202 891.27 81.2402 891.56 82.3302C891.98 83.9302 893.28 84.6502 894.87 84.8502C896.87 85.1002 896.87 85.1002 896.58 87.1002C896.33 88.8602 896.32 88.9402 894.57 88.7702C889.04 88.2402 886.06 84.6702 886.75 79.0402C886.82 78.4202 886.97 77.8002 887.08 77.1902C886.99 77.1102 886.88 77.0302 886.77 76.9502ZM877.17 30.8602C872.9 30.7502 869.54 31.2402 866.44 32.6602C860.18 35.5202 855.83 40.3402 852.9 46.4802C850.82 50.8402 849.63 55.4302 849.14 60.2502C848.57 65.7902 848.72 71.2602 850.84 76.4702C853.62 83.3202 858.2 86.1102 865.24 86.0602C869.77 86.0302 873.72 84.2602 877.31 81.5802C881.52 78.4402 884.72 74.3802 887.7 70.1302C887.95 69.7702 888.07 69.3002 888.15 68.8602C889.01 64.0502 889.85 59.2302 890.71 54.4202C891.54 49.7502 892.41 45.0802 893.22 40.4002C893.29 39.9802 893.19 39.3902 892.92 39.0802C888.51 34.0802 883.16 30.9502 877.17 30.8602Z" fill="white"/>
<path d="M778.599 77.1002C775.759 80.2602 772.839 83.1502 769.529 85.6302C766.189 88.1302 762.489 89.6502 758.309 90.1102C754.379 90.5402 750.659 89.9702 747.089 88.3702C742.669 86.3902 739.869 82.8602 737.939 78.5502C736.379 75.0702 735.689 71.3702 735.529 67.5802C735.249 60.5602 736.259 53.7502 738.949 47.2302C742.519 38.5702 748.329 31.9602 757.169 28.5702C766.559 24.9702 776.809 26.2302 784.649 33.9602C785.009 34.3202 785.389 34.6702 785.889 35.1402C786.349 33.2802 786.729 31.6102 787.189 29.9602C787.369 29.3202 787.609 28.2902 788.019 28.1802C789.039 27.9202 790.169 28.0702 791.249 28.1402C791.359 28.1502 791.549 28.7402 791.509 29.0202C791.139 31.3402 790.709 33.6602 790.309 35.9802C789.429 40.9702 788.559 45.9602 787.679 50.9502C786.989 54.8602 786.259 58.7702 785.579 62.6902C784.599 68.3002 783.549 73.9102 782.729 79.5502C782.309 82.4102 783.619 84.6802 786.819 84.9002C788.219 85.0002 788.219 85.0702 788.119 86.4702C787.949 88.9902 787.619 89.2102 785.139 88.6702C782.569 88.1102 780.319 87.0902 779.059 84.5902C778.089 82.6502 778.009 80.6002 778.349 78.5102C778.429 78.0402 778.519 77.5702 778.599 77.1002ZM740.289 63.7902C740.359 65.1602 740.409 66.5302 740.489 67.9002C740.759 72.2902 741.789 76.4502 744.289 80.1502C746.069 82.7902 748.489 84.6502 751.559 85.4302C757.819 87.0202 763.459 85.5102 768.589 81.7302C772.789 78.6302 776.019 74.6502 778.969 70.4102C779.279 69.9602 779.539 69.4202 779.639 68.8902C780.339 65.1902 780.989 61.4902 781.649 57.7802C782.669 52.0302 783.679 46.2802 784.729 40.5402C784.859 39.8402 784.739 39.3602 784.259 38.8402C780.559 34.8202 776.249 31.9002 770.709 31.0902C766.279 30.4402 761.939 30.8602 757.889 32.6902C751.619 35.5102 747.309 40.3902 744.369 46.5302C741.759 51.9902 740.569 57.7802 740.289 63.7902Z" fill="white"/>
<path d="M830.12 83.1602C830.73 84.4102 831.29 85.5402 831.89 86.7502C826.36 89.6802 820.72 91.4402 814.52 89.4502C810.29 88.0902 808.28 84.8902 807.69 80.6502C807.22 77.2602 808.099 73.9902 808.659 70.7102C809.979 62.9502 811.4 55.2002 812.78 47.4402C813.61 42.8102 814.44 38.1702 815.26 33.5402C815.33 33.1302 815.34 32.7202 815.4 32.1702H804.4C804.32 31.9702 804.27 31.9102 804.27 31.8502C804.5 28.1402 804.5 28.1402 808.18 28.1402H816.159C816.449 26.5502 816.74 24.9702 817.02 23.4002C817.86 18.6502 818.72 13.9102 819.51 9.15024C819.63 8.43024 819.9 8.21024 820.59 8.23024C821.85 8.28024 823.11 8.24024 824.5 8.24024C823.3 14.9202 822.119 21.4702 820.909 28.1402H838.849C838.689 29.1502 838.509 30.0402 838.419 30.9402C838.329 31.8702 837.95 32.2102 836.95 32.2002C832.05 32.1402 827.15 32.1702 822.24 32.1702C820.35 32.1702 820.319 32.1602 819.979 34.0802C818.159 44.2202 816.35 54.3702 814.56 64.5202C813.85 68.5702 813.15 72.6302 812.57 76.7002C812.38 78.0302 812.42 79.4602 812.68 80.7802C813.44 84.5502 815.339 85.7902 819.219 86.1202C822.449 86.3902 825.4 85.3402 828.28 84.0402C828.87 83.7702 829.43 83.4902 830.12 83.1602Z" fill="white"/>
<path d="M329.69 3.37012C341.3 3.47012 350.37 7.28012 357.11 15.8301C361.39 21.2501 363.73 27.5501 364.48 34.4301C365.17 40.8301 364.79 47.1601 363.18 53.3901C360.97 61.9101 356.93 69.4601 350.75 75.7601C343.64 83.0001 335.06 87.5901 325.08 89.4901C318.81 90.6801 312.55 90.8201 306.35 89.0601C300.39 87.3701 295.23 84.3001 291.08 79.6601C285.86 73.8101 283.09 66.8801 282.26 59.1401C281.01 47.5301 283.28 36.6401 289.32 26.6201C294.24 18.4601 301.07 12.3701 309.62 8.20012C313.89 6.12012 318.38 4.70012 323.06 3.98012C325.53 3.59012 328.04 3.51012 329.69 3.37012ZM286.79 54.7501C286.75 59.8601 288.03 66.2801 291.43 72.1801C294.72 77.8701 299.45 81.8401 305.62 84.0801C311.86 86.3401 318.23 86.4701 324.67 85.1401C334.83 83.0501 343.18 77.8801 349.66 69.8501C355.15 63.0601 358.55 55.3001 359.57 46.5501C360.45 38.9301 359.93 31.5001 356.78 24.4001C353.72 17.5101 348.71 12.6101 341.67 9.83012C335.76 7.49012 329.61 7.22012 323.47 8.29012C312.74 10.1601 303.87 15.4501 297.04 23.9101C290.19 32.3901 286.79 42.1801 286.79 54.7501Z" fill="white"/>
<path d="M535.4 77.1302C534.27 78.3702 533.18 79.6402 532.01 80.8402C529.47 83.4402 526.76 85.8702 523.54 87.6102C519.57 89.7502 515.36 90.6602 510.83 90.2002C507.76 89.8902 504.87 89.1002 502.26 87.4802C498.13 84.9002 495.61 81.0502 494.11 76.5102C492.37 71.2402 492.17 65.8302 492.73 60.3302C493.32 54.5502 494.82 49.0602 497.51 43.9202C501.4 36.4802 507.17 31.0402 515.16 28.2602C520.69 26.3402 526.35 26.2202 531.97 28.0102C535.73 29.2102 538.91 31.3902 541.71 34.1402C542.02 34.4502 542.16 34.9502 542.38 35.3602C542.56 35.2402 542.73 35.1202 542.91 35.0002C543.35 33.2502 543.81 31.4902 544.24 29.7402C544.65 28.0802 544.64 28.0702 546.32 28.0702C548.71 28.0602 548.68 28.0602 548.26 30.4102C546.93 37.9602 545.63 45.5202 544.29 53.0702C543.43 57.9202 542.52 62.7602 541.66 67.6102C540.99 71.3802 540.33 75.1602 539.76 78.9502C539.61 79.9002 539.71 80.9302 539.89 81.8802C540.24 83.6402 541.45 84.6602 543.23 84.9102C543.4 84.9302 543.58 84.9402 543.76 84.9602C545.31 85.1502 545.32 85.1702 545.1 86.7302C545.08 86.8302 545.05 86.9402 545.05 87.0402C544.85 89.1902 544.85 89.0102 542.87 88.8102C539.87 88.5002 537.27 87.3302 535.91 84.3902C535.09 82.6102 534.98 80.7202 535.29 78.8102C535.37 78.2802 535.49 77.7402 535.59 77.2102C535.52 77.1802 535.46 77.1602 535.4 77.1302ZM497.34 63.5302C497.36 68.8102 497.74 72.7102 499.25 76.4302C502.09 83.4202 506.84 86.1802 513.7 86.1102C518.27 86.0702 522.24 84.2802 525.85 81.5602C530.02 78.4202 533.2 74.3902 536.16 70.1602C536.43 69.7802 536.54 69.2602 536.63 68.7802C537.4 64.5902 538.14 60.4002 538.89 56.2102C539.83 50.9802 540.77 45.7502 541.68 40.5202C541.75 40.1102 541.72 39.5202 541.47 39.2402C538.76 36.0402 535.52 33.5102 531.55 32.1102C526.38 30.2802 521.13 30.4302 516.02 32.3002C510.27 34.4102 506.06 38.4602 502.94 43.6402C499.01 50.1702 497.43 57.3102 497.34 63.5302Z" fill="white"/>
<path d="M445.9 57.2901C441.7 57.2901 438.88 57.3101 436.06 57.2801C435.31 57.2701 434.96 57.5201 434.92 58.2901C434.8 60.9601 434.46 63.6401 434.55 66.3001C434.71 70.9301 435.74 75.3601 438.33 79.3201C440.58 82.7701 443.79 84.7501 447.75 85.5501C456.14 87.2501 463.89 85.4201 471.15 81.1101C472.68 80.2001 472.68 80.1901 473.62 81.6401C473.64 81.6701 473.65 81.7001 473.67 81.7301C475.04 83.9001 475.34 83.4701 472.95 84.8301C468.48 87.3601 463.72 89.2101 458.61 89.9201C453.8 90.5901 448.98 90.6401 444.29 89.0901C437.68 86.9001 433.48 82.2701 431.3 75.7801C429.54 70.5601 429.29 65.1801 429.9 59.7101C430.4 55.2201 431.58 50.9601 433.48 46.8601C436.95 39.4101 442.44 33.9801 449.76 30.3501C454.71 27.9001 459.99 26.8101 465.47 26.7801C469.12 26.7601 472.72 27.2401 476.03 28.9301C482.26 32.1001 485.78 39.3701 482.53 45.8801C481.12 48.7001 478.73 50.5401 476.01 52.0001C471.89 54.2301 467.4 55.2501 462.84 55.9801C459.82 56.4601 456.76 56.7501 453.71 56.9701C450.66 57.2001 447.59 57.2301 445.9 57.2901ZM436.01 53.1201C436.41 53.1401 436.65 53.1701 436.9 53.1701C443.28 53.0401 449.66 53.0701 456.02 52.7201C459.76 52.5101 463.49 51.8101 467.18 51.1001C470.12 50.5301 472.94 49.4701 475.37 47.6001C477.85 45.6901 479.26 43.2601 478.93 40.0401C478.53 36.0901 476.04 33.7401 472.66 32.2001C469.22 30.6401 465.53 30.6101 461.86 30.9801C455.69 31.6001 450.27 34.0401 445.57 38.0801C440.9 42.1001 437.82 47.1101 436.01 53.1201Z" fill="white"/>
<path d="M558.55 88.8901C558.77 87.5001 558.93 86.2901 559.14 85.0901C560.36 78.2301 561.61 71.3801 562.82 64.5201C564.28 56.2001 565.71 47.8801 567.16 39.5701C567.77 36.0701 568.41 32.5801 569.02 29.0801C569.12 28.5101 569.36 28.1901 569.99 28.2101C570.66 28.2401 571.34 28.2701 572 28.2001C572.98 28.1001 573.23 28.5001 573.1 29.4201C572.7 32.2101 572.34 35.0001 571.97 37.7901C571.78 39.2101 571.61 40.6401 571.63 42.1901C571.93 41.8501 572.26 41.5201 572.54 41.1601C575.97 36.8001 579.91 32.9901 584.77 30.2601C590.76 26.9001 597.14 25.6401 603.8 27.6901C608.06 29.0001 610.83 32.0901 612.07 36.4501C612.95 39.5501 612.7 42.6601 612.17 45.7701C610.87 53.4001 609.55 61.0301 608.19 68.6501C607.13 74.5701 606.04 80.4901 604.92 86.4001C604.45 88.9101 604.4 88.9001 601.78 88.9001C601.25 88.9001 600.72 88.8901 600.19 88.8601C600.1 88.8601 600.01 88.7701 599.8 88.6701C600.06 87.1401 600.32 85.5901 600.59 84.0401C601.83 77.1501 603.07 70.2601 604.31 63.3701C605.11 58.9001 606.01 54.4501 606.68 49.9701C607.18 46.6001 607.54 43.2001 607.66 39.8001C607.79 36.1801 605.38 32.9001 602.01 31.6501C599.62 30.7701 597.13 30.6601 594.61 30.9401C588.47 31.6101 583.58 34.7501 579.22 38.8501C576 41.8801 573.19 45.2801 570.78 48.9801C570.32 49.6801 570.13 50.6001 569.97 51.4501C569.21 55.5701 568.51 59.7001 567.79 63.8201C566.83 69.2901 565.86 74.7701 564.89 80.2401C564.44 82.7701 563.98 85.3001 563.56 87.8301C563.43 88.6101 563.13 88.9901 562.26 88.9301C561.09 88.8301 559.9 88.8901 558.55 88.8901Z" fill="white"/>
<path d="M374.32 64.3102C374.49 55.0002 376.67 47.2202 381.61 40.3902C386.93 33.0402 394.06 28.4802 403.13 27.1702C407.97 26.4702 412.79 26.5702 417.37 28.4502C419.57 29.3502 421.58 30.6902 423.67 31.8502C424.38 32.2402 424.49 32.7202 423.86 33.3402C423.15 34.0302 422.59 35.1702 421.79 35.3502C421.13 35.5002 420.2 34.5702 419.41 34.0802C414.59 31.1202 409.32 30.3302 403.85 31.1902C391.89 33.0702 384.96 40.6702 381.13 51.6402C379.47 56.4002 379.02 61.3402 379.31 66.3302C379.59 71.1802 380.72 75.8002 383.72 79.7802C386.04 82.8602 389.08 84.8402 392.87 85.5802C400.15 87.0102 406.74 85.2202 412.86 81.2202C415.08 79.7702 414.56 79.7702 416.08 81.7502C417.64 83.7802 417.49 83.3702 415.57 84.6302C411.83 87.0802 407.87 89.0802 403.42 89.8102C397.85 90.7202 392.32 90.8002 387.07 88.2702C382.08 85.8602 378.72 81.9102 376.62 76.8402C374.86 72.5202 374.32 68.0002 374.32 64.3102Z" fill="white"/>
<path d="M605.14 146.05C605.53 143.88 605.93 141.72 606.31 139.56C608.05 129.79 609.78 120.02 611.51 110.25C611.64 109.52 611.92 109.14 612.76 109.19C613.94 109.26 615.13 109.21 616.48 109.21C616.08 111.53 615.72 113.7 615.34 115.86C613.66 125.29 611.98 134.72 610.3 144.15C608.2 155.99 606.11 167.83 604.02 179.66C602.87 186.12 601.68 192.58 600.6 199.06C600.41 200.21 599.98 200.6 598.88 200.5C598.17 200.44 597.45 200.49 596.58 200.49C597.01 196.41 597.42 192.52 597.85 188.47C596.46 189.98 595.22 191.42 593.87 192.76C591.06 195.57 588.22 198.42 584.46 199.93C576.65 203.08 569.1 202.95 562.31 197.36C558.94 194.59 556.89 190.82 555.91 186.64C553.13 174.69 554.72 163.29 561.11 152.78C566.16 144.47 573.48 139.21 583.34 138.05C591.1 137.14 597.82 139.52 603.52 144.83C603.93 145.21 604.33 145.58 604.75 145.95C604.83 146.01 604.93 146 605.14 146.05ZM589.6 142.09C579.28 142.16 573.28 144.95 568.72 150.26C560.19 160.18 558.26 171.89 560.44 184.46C561.11 188.31 562.82 191.79 565.88 194.37C570.44 198.21 578.25 198.78 583.89 195.88C589.27 193.11 593.37 188.95 596.86 184.14C597.77 182.89 598.79 181.51 599.07 180.06C600.88 170.7 602.5 161.3 604.14 151.9C604.23 151.36 604.05 150.59 603.69 150.2C599.07 145.08 593.48 142.01 589.6 142.09Z" fill="white"/>
<path d="M666.55 188.46C665.17 189.96 664.04 191.27 662.82 192.5C659.62 195.72 656.23 198.72 651.89 200.35C641.33 204.31 629 200.89 624.8 187.97C623.08 182.67 622.96 177.26 623.45 171.77C623.94 166.18 625.42 160.88 627.9 155.86C631.6 148.38 637.23 142.85 645.03 139.77C649.55 137.99 654.27 137.53 659.12 138.27C664.67 139.12 669.19 141.81 673.1 145.7C673.28 145.87 673.49 146.01 673.86 146.31C674.34 144.42 674.76 142.67 675.25 140.94C675.42 140.37 675.7 139.46 676.08 139.38C677.1 139.17 678.19 139.27 679.24 139.38C679.37 139.39 679.56 140.19 679.49 140.59C678.74 145 677.96 149.41 677.18 153.81C675.75 161.87 674.32 169.92 672.9 177.98C672.2 181.97 671.51 185.96 670.86 189.95C670.72 190.83 670.68 191.74 670.76 192.63C670.99 194.96 672.2 196.09 674.52 196.44C675.09 196.52 676.09 196.84 676.11 197.08C676.17 198.12 675.95 199.18 675.74 200.22C675.71 200.34 675.13 200.4 674.8 200.41C668.87 200.49 665.1 195.92 666.27 190.08C666.35 189.65 666.42 189.2 666.55 188.46ZM628.11 175.78C628.17 180.41 628.52 184.35 630.09 188.07C631.46 191.32 633.35 194.2 636.6 195.86C641.39 198.31 646.33 198.15 651.22 196.22C656.94 193.96 661.01 189.65 664.7 184.94C666.27 182.93 667.95 180.95 667.99 178.18C668 177.67 668.12 177.17 668.21 176.66C669.63 168.69 671 160.71 672.53 152.76C672.82 151.23 672.39 150.31 671.4 149.29C666.15 143.88 659.8 141.41 652.31 142.25C645 143.07 639.4 146.9 635.17 152.79C630.11 159.83 628.24 167.87 628.11 175.78Z" fill="white"/>
<path d="M350.86 115.95C350.66 117.26 350.51 118.48 350.26 119.67C350.2 119.93 349.79 120.2 349.48 120.29C349.13 120.4 348.72 120.32 348.33 120.32C333.16 120.32 318 120.34 302.83 120.29C301.57 120.29 301.09 120.63 300.87 121.9C298.96 132.93 296.97 143.95 295.01 154.97C295 155.04 295.04 155.13 295.09 155.34H338.92C338.66 156.77 338.46 158.05 338.18 159.32C338.14 159.52 337.79 159.74 337.55 159.8C337.19 159.88 336.79 159.83 336.4 159.83C322.9 159.83 309.4 159.83 295.9 159.83H294.24C293.79 162.26 293.34 164.63 292.92 167.01C291.01 177.76 289.11 188.5 287.22 199.25C287.07 200.08 286.79 200.55 285.83 200.48C284.6 200.4 283.37 200.46 281.92 200.46C282.25 198.48 282.53 196.65 282.86 194.83C284.63 184.82 286.4 174.8 288.18 164.79C290.2 153.47 292.23 142.15 294.25 130.84C295.06 126.31 295.86 121.77 296.64 117.24C296.79 116.37 296.97 115.82 298.11 115.83C315.28 115.87 332.46 115.86 349.63 115.86C350.01 115.88 350.38 115.92 350.86 115.95Z" fill="white"/>
<path d="M407.26 164.66C407.12 174.47 404.29 183.38 397.64 190.71C390.27 198.83 381.07 202.67 369.96 201.72C360 200.87 352.85 193.68 350.72 185C347.77 172.94 349.75 161.67 356.97 151.54C361.92 144.59 368.78 140.23 377.17 138.59C382.94 137.46 388.73 137.44 394.21 140.11C400.3 143.08 404.17 147.96 405.88 154.42C406.76 157.73 407.04 161.2 407.59 164.59C407.48 164.61 407.37 164.63 407.26 164.66ZM402.58 164.7C402.1 161.63 401.87 158.51 401.1 155.52C399.51 149.38 395.86 144.75 389.62 143.02C381.09 140.66 373.25 142.72 366.45 148.22C355.3 157.24 351.97 173.34 356.06 185.83C357.97 191.65 361.91 195.77 368 197.04C378.43 199.21 387.1 195.72 394.05 187.87C399.85 181.3 402.14 173.39 402.58 164.7Z" fill="white"/>
<path d="M819.53 164.68C819.38 174.3 816.67 183.05 810.23 190.33C802.82 198.7 793.53 202.67 782.21 201.71C772.28 200.87 765.08 193.64 762.96 184.85C760.07 172.82 762.06 161.6 769.26 151.51C774.22 144.56 781.08 140.21 789.47 138.57C795.19 137.45 800.94 137.43 806.39 140.05C812.49 142.99 816.39 147.86 818.12 154.31C819.02 157.66 819.3 161.17 819.85 164.6C819.75 164.64 819.64 164.66 819.53 164.68ZM814.69 164.73C814.45 162.49 814.34 160.22 813.95 158C812.87 151.8 810.05 146.71 804.15 143.88C799.44 141.62 794.43 141.62 789.5 142.85C780.05 145.22 773.71 151.35 769.81 160.08C766.52 167.43 765.83 175.14 767.5 183C768.56 188.01 770.92 192.29 775.44 195.05C780.5 198.14 786.04 198.24 791.55 197C798.58 195.42 804.08 191.31 808.22 185.46C812.6 179.28 814.5 172.29 814.69 164.73Z" fill="white"/>
<path d="M460.7 200.25C461.29 195.62 461.87 191.07 462.45 186.53C462.37 186.5 462.3 186.47 462.22 186.45C461.24 187.6 460.27 188.76 459.28 189.9C456.46 193.14 453.26 195.97 449.59 198.2C444.77 201.12 439.55 202.32 433.92 201.74C431.2 201.46 428.61 200.85 426.39 199.21C422.49 196.33 420.89 192.29 421.06 187.61C421.18 184.34 421.6 181.06 422.15 177.83C423.66 168.96 425.3 160.12 426.9 151.27C427.56 147.62 428.22 143.97 428.96 140.33C429.04 139.95 429.63 139.47 430.03 139.41C430.99 139.27 431.99 139.38 432.97 139.36C433.79 139.34 434.01 139.71 433.87 140.47C433.07 144.83 432.29 149.19 431.51 153.55C430.16 161.1 428.77 168.65 427.49 176.21C426.86 179.9 426.29 183.62 425.96 187.34C425.67 190.61 426.78 193.49 429.41 195.62C431.02 196.91 432.93 197.48 434.97 197.64C441.12 198.13 446.47 196.04 451.28 192.41C456.08 188.8 459.88 184.24 463.2 179.29C463.89 178.27 463.96 176.79 464.19 175.5C466.15 164.46 468.08 153.42 470.01 142.38C470.54 139.33 470.52 139.33 473.75 139.34C475.44 139.35 475.49 139.36 475.21 140.99C474.25 146.62 473.25 152.25 472.27 157.87C470.93 165.55 469.6 173.24 468.24 180.92C467.29 186.33 466.3 191.75 465.34 197.16C465.32 197.29 465.27 197.41 465.25 197.53C464.7 200.7 464.14 201.05 460.7 200.25Z" fill="white"/>
<path d="M843.83 153.7C845.27 152.03 846.42 150.63 847.64 149.29C851.94 144.57 856.91 140.85 863.09 138.95C867.49 137.6 871.97 137.46 876.34 138.81C881.18 140.31 884.41 144.3 885.15 149.46C885.78 153.9 884.75 158.22 884.01 162.54C882.52 171.24 880.87 179.91 879.3 188.59C878.65 192.15 878.02 195.72 877.41 199.29C877.27 200.07 876.97 200.52 876.09 200.49C874.91 200.44 873.73 200.48 872.35 200.48C872.8 197.92 873.19 195.63 873.6 193.34C875.2 184.4 876.81 175.47 878.38 166.53C879.06 162.67 879.71 158.8 880.24 154.91C880.67 151.77 880.5 148.69 878.63 145.92C876.98 143.49 874.52 142.55 871.78 142.18C866.94 141.53 862.46 142.73 858.29 145.15C851.84 148.88 847.2 154.44 843.12 160.5C842.39 161.59 842.35 163.17 842.11 164.55C841.13 170.01 840.2 175.47 839.24 180.93C838.16 187.06 837.02 193.18 835.98 199.31C835.82 200.27 835.38 200.5 834.55 200.49C833.38 200.47 832.2 200.48 830.85 200.48C831.27 198.02 831.65 195.84 832.03 193.67C833.38 185.94 834.72 178.22 836.08 170.49C837.28 163.65 838.51 156.81 839.73 149.96C840.29 146.81 840.89 143.67 841.4 140.52C841.54 139.66 841.86 139.33 842.7 139.33C846.5 139.34 845.65 139.09 845.32 142.32C844.92 145.99 844.36 149.64 843.83 153.7Z" fill="white"/>
<path d="M500.47 139.34C499.86 144.13 499.28 148.68 498.7 153.23C498.78 153.28 498.86 153.33 498.94 153.38C499.19 153.09 499.44 152.8 499.68 152.5C503.12 148.14 507.04 144.3 511.9 141.53C517.94 138.09 524.38 136.82 531.12 138.81C535.44 140.09 538.25 143.19 539.53 147.57C540.41 150.6 540.24 153.68 539.71 156.71C537.92 167.04 536.05 177.36 534.21 187.68C533.52 191.54 532.81 195.4 532.18 199.27C532.03 200.2 531.63 200.5 530.76 200.48C529.62 200.45 528.48 200.47 527.14 200.47C527.56 198.06 527.92 195.9 528.3 193.73C529.8 185.34 531.32 176.95 532.8 168.56C533.56 164.28 534.36 160 534.92 155.7C535.38 152.22 535.53 148.7 533.22 145.62C531.55 143.4 529.2 142.52 526.61 142.17C521.86 141.52 517.45 142.65 513.34 144.98C506.74 148.72 502.05 154.41 497.84 160.53C497.52 160.99 497.42 161.63 497.32 162.21C495.73 171.23 494.16 180.26 492.58 189.29C492 192.56 491.36 195.83 490.83 199.11C490.66 200.2 490.14 200.52 489.13 200.48C488.04 200.43 486.95 200.47 485.65 200.47C486.03 198.16 486.35 196.11 486.72 194.06C488.11 186.21 489.52 178.36 490.91 170.52C492.27 162.84 493.63 155.16 494.99 147.48C495.39 145.21 495.81 142.95 496.14 140.67C496.29 139.59 496.8 139.23 497.83 139.31C498.62 139.39 499.42 139.34 500.47 139.34Z" fill="white"/>
<path d="M704.78 143.44H697.67C696.73 143.44 695.789 143.4 694.85 143.45C693.92 143.49 693.62 143.05 693.75 142.2C693.84 141.65 693.98 141.11 694.02 140.56C694.1 139.59 694.62 139.25 695.55 139.26C698.46 139.28 701.36 139.23 704.26 139.28C705.27 139.3 705.719 139.1 705.909 137.95C706.849 132.1 707.92 126.27 708.93 120.43C709.07 119.64 709.43 119.2 710.29 119.24C711.14 119.28 712 119.27 712.85 119.24C713.86 119.2 714.06 119.62 713.88 120.58C712.77 126.49 711.719 132.4 710.659 138.32C710.619 138.56 710.61 138.82 710.57 139.25H712C716.91 139.25 721.82 139.25 726.74 139.25C728.48 139.25 728.63 139.44 728.26 141.09C727.75 143.41 727.75 143.41 725.3 143.41C720.56 143.41 715.82 143.44 711.07 143.38C710.07 143.37 709.72 143.76 709.57 144.65C708.03 153.47 706.46 162.28 704.92 171.1C703.98 176.43 703.01 181.76 702.19 187.11C701.94 188.74 701.93 190.45 702.13 192.09C702.52 195.36 705.11 197.44 708.64 197.64C712.08 197.83 715.229 196.86 718.219 195.3C719.379 194.69 719.9 194.87 720.42 196.06C721.55 198.67 721.84 198.28 719.24 199.45C714.73 201.48 710.06 202.56 705.07 201.4C700.7 200.38 697.37 196.4 697.09 191.87C696.84 187.85 697.77 183.98 698.42 180.07C699.36 174.44 700.4 168.82 701.4 163.2C702.5 157.03 703.61 150.86 704.71 144.69C704.77 144.35 704.75 143.97 704.78 143.44Z" fill="white"/>
<path d="M734.12 200.49C737.71 180.03 741.27 159.76 744.83 139.44H749.65C749.22 141.97 748.81 144.39 748.39 146.81C746.46 157.75 744.51 168.7 742.58 179.64C741.43 186.14 740.27 192.65 739.17 199.16C738.99 200.21 738.56 200.6 737.5 200.51C736.45 200.42 735.39 200.49 734.12 200.49Z" fill="white"/>
<path d="M748.25 120.33C748.61 118.18 748.9 116.26 749.26 114.35C749.44 113.36 749.55 111.68 750.02 111.56C751.44 111.19 753.02 111.43 754.71 111.43C754.29 113.62 753.91 115.7 753.5 117.78C752.98 120.35 752.97 120.34 750.32 120.34H748.25V120.33Z" fill="white"/>
</g>
<defs>
<clipPath id="clip0">
<rect width="900" height="205.37" fill="white"/>
</clipPath>
</defs>
</svg>
